<?xml version="1.0" encoding="UTF-8" standalone="no"?>
<svg
   id="Warstwa_1"
   data-name="Warstwa 1"
   viewBox="0 0 801.65997 111.16999"
   version="1.1"
   sodipodi:docname="logo_poziom_linia.svg"
   width="801.65997"
   height="111.17"
   inkscape:version="1.3 (0e150ed6c4, 2023-07-21)"
   xmlns:inkscape="http://www.inkscape.org/namespaces/inkscape"
   xmlns:sodipodi="http://sodipodi.sourceforge.net/DTD/sodipodi-0.dtd"
   xmlns="http://www.w3.org/2000/svg"
   xmlns:svg="http://www.w3.org/2000/svg">
  <sodipodi:namedview
     id="namedview16"
     pagecolor="#ffffff"
     bordercolor="#000000"
     borderopacity="0.25"
     inkscape:showpageshadow="2"
     inkscape:pageopacity="0.0"
     inkscape:pagecheckerboard="0"
     inkscape:deskcolor="#d1d1d1"
     inkscape:zoom="2.8261719"
     inkscape:cx="257.94609"
     inkscape:cy="76.251554"
     inkscape:window-width="3440"
     inkscape:window-height="1369"
     inkscape:window-x="-8"
     inkscape:window-y="1432"
     inkscape:window-maximized="1"
     inkscape:current-layer="Warstwa_1"
     showguides="true" />
  <defs
     id="defs1">
    <style
       id="style1">&#10;      .cls-1 {&#10;        fill: #ffda06;&#10;      }&#10;    </style>
  </defs>
  <g
     id="g4"
     transform="translate(-111.17,-111.17)">
    <polygon
       class="cls-1"
       points="167.26,166.76 167.26,155.64 178.38,155.64 189.49,155.64 189.49,166.76 178.38,166.76 178.38,177.87 167.26,177.87 156.14,177.87 156.14,166.76 "
       id="polygon1" />
    <rect
       class="cls-1"
       x="178.38"
       y="111.17"
       width="11.12"
       height="11.12"
       id="rect1" />
    <polygon
       class="cls-1"
       points="200.61,144.52 189.49,144.52 178.38,144.52 178.38,133.4 189.49,133.4 200.61,133.4 "
       id="polygon2" />
    <polygon
       class="cls-1"
       points="145.02,122.29 156.14,122.29 167.26,122.29 167.26,133.4 156.14,133.4 145.02,133.4 "
       id="polygon3" />
    <rect
       class="cls-1"
       x="144.52"
       y="144.52"
       width="11.12"
       height="11.12"
       id="rect3" />
    <path
       class="cls-1"
       d="m 189.49,200.11 h 11.12 v -11.12 c 0,0 11.12,0 11.12,0 v 11.12 c 0,0 66.7,0 66.7,0 v -66.7 c 0,0 -66.7,0 -66.7,0 v -11.12 h -11.12 c 0,0 0,-11.12 0,-11.12 h 87.84 c 6.74,0 12.21,5.47 12.21,12.21 v 86.75 c 0,6.74 -5.47,12.21 -12.21,12.21 H 201.7 c -6.74,0 -12.21,-5.47 -12.21,-12.21 z"
       id="path3" />
    <polygon
       class="cls-1"
       points="178.38,200.11 178.38,200.11 167.26,200.11 167.26,188.99 178.38,188.99 178.38,177.87 200.61,177.87 200.61,188.99 189.49,188.99 178.38,188.99 "
       id="polygon4" />
    <rect
       class="cls-1"
       x="111.17"
       y="144.52"
       width="11.12"
       height="11.12"
       id="rect4" />
  </g>
  <g
     id="g16"
     transform="translate(-111.17,-111.17)">
    <g
       id="g9">
      <path
         d="m 626.95,189.91 v -45.72 h 7.68 v 5.72 c 1.62,-2.13 3.65,-3.83 6.1,-5.1 2.45,-1.27 5.13,-1.9 8.03,-1.9 3.38,0 6.47,0.82 9.28,2.47 2.8,1.65 5.01,3.83 6.63,6.54 1.62,-2.71 3.82,-4.89 6.61,-6.54 2.79,-1.65 5.86,-2.47 9.21,-2.47 3.35,0 6.57,0.83 9.37,2.49 2.81,1.66 5.04,3.89 6.7,6.7 1.66,2.81 2.49,5.93 2.49,9.37 v 28.44 h -7.68 V 163.3 c 0,-2.26 -0.55,-4.34 -1.65,-6.26 -1.1,-1.92 -2.58,-3.46 -4.43,-4.62 -1.86,-1.16 -3.92,-1.74 -6.17,-1.74 -2.25,0 -4.31,0.54 -6.17,1.62 -1.86,1.08 -3.34,2.58 -4.43,4.48 -1.1,1.91 -1.65,4.08 -1.65,6.51 v 26.61 h -7.68 v -26.61 c 0,-2.44 -0.55,-4.61 -1.65,-6.51 -1.1,-1.91 -2.58,-3.4 -4.46,-4.48 -1.87,-1.08 -3.94,-1.62 -6.19,-1.62 -2.25,0 -4.28,0.58 -6.15,1.74 -1.87,1.16 -3.36,2.7 -4.46,4.62 -1.1,1.92 -1.65,4.01 -1.65,6.26 v 26.61 z"
         id="path4" />
      <path
         d="M 746.32,144.19 H 754 v 45.72 h -7.68 L 746,182.18 c -1.43,2.65 -3.41,4.8 -5.92,6.44 -2.51,1.65 -5.51,2.47 -8.98,2.47 -3.47,0 -6.49,-0.63 -9.42,-1.9 -2.93,-1.27 -5.51,-3.02 -7.75,-5.26 -2.24,-2.24 -3.99,-4.83 -5.23,-7.75 -1.25,-2.93 -1.87,-6.08 -1.87,-9.47 0,-3.39 0.61,-6.34 1.83,-9.24 1.22,-2.89 2.92,-5.43 5.1,-7.61 2.18,-2.18 4.7,-3.89 7.57,-5.12 2.86,-1.23 5.94,-1.85 9.23,-1.85 3.6,0 6.75,0.85 9.47,2.54 2.71,1.69 4.91,3.88 6.58,6.56 l -0.27,-7.82 z m -15.36,39.46 c 3.02,0 5.63,-0.74 7.84,-2.22 2.21,-1.48 3.91,-3.48 5.12,-6.01 1.21,-2.53 1.81,-5.32 1.81,-8.37 0,-3.05 -0.61,-5.92 -1.83,-8.44 -1.22,-2.51 -2.93,-4.51 -5.14,-5.99 -2.21,-1.48 -4.81,-2.22 -7.8,-2.22 -2.99,0 -5.76,0.75 -8.23,2.24 -2.47,1.49 -4.43,3.5 -5.87,6.01 -1.45,2.52 -2.17,5.31 -2.17,8.39 0,3.08 0.75,5.87 2.24,8.39 1.49,2.52 3.48,4.51 5.94,5.99 2.46,1.48 5.17,2.22 8.09,2.22 z"
         id="path5" />
      <path
         d="m 789.11,151.87 h -10.38 l -0.05,38.04 H 771 l 0.05,-38.04 h -7.86 v -7.68 h 7.86 L 771,129.83 h 7.68 l 0.05,14.36 h 10.38 z"
         id="path6" />
      <path
         d="m 803.1,136.74 c -1.22,0 -2.24,-0.4 -3.06,-1.19 -0.82,-0.79 -1.23,-1.78 -1.23,-2.97 0,-1.19 0.41,-2.18 1.23,-2.97 0.82,-0.79 1.83,-1.19 3.02,-1.19 1.19,0 2.19,0.4 3.02,1.19 0.82,0.79 1.23,1.78 1.23,2.97 0,1.19 -0.4,2.18 -1.21,2.97 -0.81,0.79 -1.8,1.19 -2.99,1.19 z m -3.93,7.45 h 7.68 v 45.72 h -7.68 z"
         id="path7" />
      <path
         d="m 839.63,191.1 c -4.2,0 -8.04,-1.08 -11.5,-3.25 -3.46,-2.17 -6.22,-5.07 -8.27,-8.71 -2.05,-3.64 -3.09,-7.67 -3.09,-12.09 0,-3.35 0.59,-6.48 1.78,-9.39 1.19,-2.91 2.83,-5.47 4.91,-7.68 2.08,-2.21 4.52,-3.94 7.29,-5.19 2.77,-1.25 5.73,-1.87 8.87,-1.87 4.2,0 8.04,1.08 11.5,3.25 3.46,2.17 6.22,5.07 8.27,8.73 2.06,3.66 3.09,7.71 3.09,12.16 0,3.32 -0.59,6.43 -1.78,9.33 -1.19,2.9 -2.83,5.45 -4.91,7.66 -2.09,2.21 -4.51,3.94 -7.27,5.19 -2.76,1.25 -5.72,1.87 -8.89,1.87 z m 0,-7.68 c 2.86,0 5.45,-0.76 7.75,-2.26 2.3,-1.51 4.11,-3.51 5.44,-5.99 1.33,-2.48 1.99,-5.19 1.99,-8.11 0,-2.92 -0.68,-5.73 -2.03,-8.23 -1.36,-2.5 -3.18,-4.49 -5.46,-5.99 -2.29,-1.49 -4.85,-2.24 -7.68,-2.24 -2.83,0 -5.44,0.76 -7.73,2.26 -2.29,1.51 -4.1,3.51 -5.44,6.01 -1.34,2.5 -2.01,5.23 -2.01,8.18 0,2.95 0.68,5.81 2.06,8.3 1.37,2.49 3.21,4.45 5.53,5.9 2.32,1.45 4.85,2.17 7.59,2.17 z"
         id="path8" />
      <path
         d="m 912.83,161.47 v 28.44 h -7.68 v -26.75 c 0,-2.31 -0.56,-4.42 -1.69,-6.31 -1.13,-1.89 -2.64,-3.39 -4.53,-4.5 -1.89,-1.11 -3.99,-1.67 -6.31,-1.67 -2.32,0 -4.38,0.56 -6.29,1.67 -1.91,1.11 -3.42,2.61 -4.55,4.5 -1.13,1.89 -1.69,4 -1.69,6.31 v 26.75 h -7.68 v -45.72 h 7.68 v 5.72 c 1.62,-2.13 3.66,-3.83 6.13,-5.1 2.47,-1.27 5.15,-1.9 8.05,-1.9 3.41,0 6.53,0.83 9.35,2.49 2.82,1.66 5.06,3.89 6.72,6.7 1.66,2.81 2.49,5.93 2.49,9.37 z"
         id="path9" />
    </g>
    <g
       id="g15">
      <path
         d="m 350.51,190.73 c -2.38,-0.15 -4.67,-0.63 -6.88,-1.44 -2.21,-0.81 -4.17,-1.91 -5.87,-3.31 -1.7,-1.4 -3.02,-3.08 -3.93,-5.03 l 9.42,-4.03 c 0.37,0.61 0.96,1.26 1.78,1.95 0.82,0.68 1.8,1.26 2.95,1.71 1.14,0.46 2.4,0.68 3.77,0.68 1.16,0 2.26,-0.16 3.31,-0.48 1.05,-0.32 1.91,-0.82 2.56,-1.49 0.65,-0.67 0.98,-1.54 0.98,-2.6 0,-1.13 -0.39,-2.01 -1.17,-2.63 -0.78,-0.62 -1.75,-1.1 -2.93,-1.42 -1.18,-0.32 -2.31,-0.62 -3.41,-0.89 -2.9,-0.58 -5.58,-1.48 -8.07,-2.7 -2.49,-1.22 -4.48,-2.8 -5.99,-4.73 -1.51,-1.93 -2.26,-4.28 -2.26,-7.02 0,-3.02 0.8,-5.62 2.4,-7.82 1.6,-2.2 3.69,-3.89 6.26,-5.07 2.58,-1.19 5.36,-1.78 8.35,-1.78 3.62,0 6.96,0.75 9.99,2.26 3.03,1.51 5.43,3.63 7.2,6.38 l -8.82,5.21 c -0.43,-0.73 -1.02,-1.41 -1.78,-2.03 -0.76,-0.63 -1.63,-1.14 -2.61,-1.55 -0.98,-0.41 -2,-0.65 -3.06,-0.71 -1.37,-0.06 -2.62,0.06 -3.75,0.37 -1.13,0.3 -2.03,0.82 -2.72,1.55 -0.68,0.73 -1.03,1.71 -1.03,2.93 0,1.16 0.46,2.02 1.37,2.58 0.91,0.56 2.02,1 3.31,1.3 1.29,0.31 2.54,0.64 3.73,1 2.68,0.89 5.2,1.97 7.57,3.25 2.36,1.28 4.26,2.85 5.69,4.71 1.43,1.86 2.12,4.09 2.06,6.68 0,2.96 -0.88,5.54 -2.65,7.75 -1.77,2.21 -4.05,3.89 -6.83,5.05 -2.79,1.16 -5.77,1.62 -8.94,1.37 z"
         id="path10" />
      <path
         d="m 400.28,191.1 c -4.2,0 -8.04,-1.08 -11.5,-3.25 -3.46,-2.16 -6.21,-5.07 -8.27,-8.71 -2.06,-3.64 -3.09,-7.67 -3.09,-12.09 0,-3.35 0.6,-6.48 1.78,-9.39 1.19,-2.91 2.83,-5.47 4.92,-7.68 2.09,-2.21 4.52,-3.94 7.29,-5.19 2.77,-1.25 5.73,-1.87 8.87,-1.87 4.21,0 8.04,1.08 11.5,3.25 3.46,2.17 6.22,5.07 8.27,8.73 2.06,3.66 3.09,7.71 3.09,12.16 0,3.32 -0.59,6.43 -1.78,9.33 -1.19,2.9 -2.83,5.45 -4.92,7.66 -2.09,2.21 -4.51,3.94 -7.27,5.19 -2.76,1.25 -5.72,1.87 -8.89,1.87 z m 0,-11.16 c 2.23,0 4.22,-0.59 5.99,-1.78 1.77,-1.19 3.16,-2.76 4.18,-4.71 1.02,-1.95 1.53,-4.08 1.53,-6.4 0,-2.32 -0.53,-4.55 -1.57,-6.51 -1.05,-1.97 -2.47,-3.54 -4.25,-4.71 -1.78,-1.17 -3.74,-1.76 -5.88,-1.76 -2.14,0 -4.17,0.6 -5.94,1.78 -1.77,1.19 -3.17,2.78 -4.21,4.75 -1.04,1.98 -1.55,4.13 -1.55,6.45 0,2.32 0.53,4.59 1.6,6.54 1.07,1.95 2.49,3.5 4.28,4.64 1.78,1.14 3.73,1.71 5.83,1.71 z"
         id="path11" />
      <path
         d="m 432.6,172.99 v -28.8 h 11.15 v 25.88 c 0,1.8 0.44,3.44 1.33,4.91 0.88,1.48 2.07,2.65 3.54,3.52 1.48,0.87 3.1,1.3 4.87,1.3 1.77,0 3.47,-0.43 4.94,-1.3 1.46,-0.87 2.64,-2.04 3.52,-3.52 0.88,-1.48 1.33,-3.12 1.33,-4.91 v -25.88 h 11.16 l 0.04,45.72 h -11.15 l -0.05,-4.16 c -1.58,1.65 -3.46,2.95 -5.62,3.91 -2.16,0.96 -4.48,1.44 -6.95,1.44 -3.32,0 -6.36,-0.82 -9.1,-2.45 -2.74,-1.63 -4.93,-3.81 -6.56,-6.54 -1.63,-2.73 -2.44,-5.77 -2.44,-9.12 z"
         id="path12" />
      <path
         d="m 488.5,189.91 -0.04,-45.72 h 11.15 l 0.05,4.07 c 1.55,-1.65 3.41,-2.95 5.58,-3.91 2.16,-0.96 4.49,-1.44 6.99,-1.44 1.68,0 3.35,0.25 5.03,0.73 l -4.39,11.25 c -1.16,-0.46 -2.32,-0.68 -3.48,-0.68 -1.8,0 -3.44,0.43 -4.91,1.3 -1.48,0.87 -2.65,2.04 -3.52,3.52 -0.87,1.48 -1.3,3.12 -1.3,4.92 v 25.97 H 488.5 Z"
         id="path13" />
      <path
         d="m 550.86,176.15 10.06,5.44 c -2.1,2.87 -4.74,5.17 -7.91,6.91 -3.17,1.74 -6.63,2.61 -10.38,2.61 -4.2,0 -8.04,-1.08 -11.5,-3.25 -3.46,-2.17 -6.21,-5.07 -8.27,-8.71 -2.06,-3.64 -3.09,-7.67 -3.09,-12.09 0,-3.35 0.6,-6.48 1.78,-9.39 1.19,-2.91 2.83,-5.47 4.92,-7.68 2.09,-2.21 4.52,-3.94 7.29,-5.19 2.77,-1.25 5.73,-1.87 8.87,-1.87 3.75,0 7.21,0.87 10.38,2.61 3.17,1.74 5.81,4.07 7.91,6.99 l -10.06,5.4 c -1.07,-1.22 -2.33,-2.16 -3.77,-2.83 -1.44,-0.67 -2.93,-1.01 -4.46,-1.01 -2.19,0 -4.17,0.6 -5.94,1.81 -1.77,1.2 -3.17,2.79 -4.21,4.75 -1.04,1.97 -1.55,4.11 -1.55,6.42 0,2.31 0.52,4.41 1.55,6.38 1.04,1.97 2.44,3.54 4.21,4.73 1.77,1.19 3.75,1.78 5.94,1.78 1.58,0 3.1,-0.34 4.53,-1.03 1.43,-0.68 2.66,-1.61 3.7,-2.77 z"
         id="path14" />
      <path
         d="m 599.63,175.92 c -0.87,1.03 -1.82,1.95 -2.96,2.63 -1.6,0.96 -3.38,1.42 -5.32,1.39 -1.89,-0.03 -3.58,-0.45 -5.07,-1.26 -1.49,-0.81 -2.73,-1.89 -3.7,-3.24 -0.98,-1.36 -1.68,-2.89 -2.1,-4.6 h 33.42 c 0.52,-3.66 0.3,-7.16 -0.64,-10.51 -0.94,-3.35 -2.45,-6.34 -4.53,-8.96 -2.07,-2.62 -4.6,-4.68 -7.57,-6.19 -2.97,-1.51 -6.24,-2.26 -9.81,-2.26 -3.14,0 -6.1,0.63 -8.87,1.87 -2.78,1.25 -5.21,2.98 -7.29,5.19 -2.08,2.21 -3.73,4.77 -4.91,7.68 -1.19,2.91 -1.78,6.03 -1.78,9.35 0,4.42 1.03,8.46 3.09,12.12 2.06,3.66 4.82,6.57 8.27,8.73 3.45,2.16 7.29,3.25 11.5,3.25 4.57,0 8.7,-1.29 12.39,-3.86 3.26,-2.28 5.76,-5.16 7.59,-8.59 l -11.69,-2.73 z m -17.32,-18.44 c 1.08,-1.48 2.4,-2.65 3.96,-3.52 1.55,-0.87 3.25,-1.3 5.07,-1.3 1.82,0 3.53,0.44 5.12,1.33 1.59,0.89 2.92,2.07 4,3.54 1.08,1.48 1.79,3.13 2.12,4.96 h -22.49 c 0.39,-1.86 1.13,-3.53 2.22,-5.01 z"
         id="path15" />
    </g>
  </g>
  <path
     d="m 100.56,55.590002 h 11.12 c 0,0 0,22.23 0,22.23 h 44.47 c 0,0 0,-44.47 0,-44.47 h -44.47 c 0,0 0,11.12 0,11.12 h -11.12 z m 11.12,0 v -11.12 c 0,0 11.12,0 11.12,0 v 11.12 z"
     id="path16" />
</svg>
